<?xml version="1.0" encoding="iso-8859-1"?>
<!-- Generator: Adobe Illustrator 19.0.0, SVG Export Plug-In . SVG Version: 6.00 Build 0)  -->
<svg version="1.1" id="Capa_1" xmlns="http://www.w3.org/2000/svg" xmlns:xlink="http://www.w3.org/1999/xlink" x="0px" y="0px"
	 viewBox="0 0 512 512" style="enable-background:new 0 0 512 512;" xml:space="preserve">
<g>
	<g>
		<path d="M467,210H46c-24.866,0-46,20.096-46,45v212c0,12.089,4.944,23.474,13.922,32.056C22.653,507.403,34.046,512,46,512h421
			c24.813,0,45-20.187,45-45V255C512,230.187,491.813,210,467,210z M482,467c0,8.271-6.729,15-15,15H46c-8.523,0-16-7.009-16-15V255
			c0-7.991,7.477-15,16-15h421c8.271,0,15,6.729,15,15V467z"/>
	</g>
</g>
<g>
	<g>
		<path d="M436,270H76c-8.284,0-15,6.716-15,15v152c0,8.284,6.716,15,15,15h360c8.284,0,15-6.716,15-15V285
			C451,276.716,444.284,270,436,270z M181,422H91V300h90V422z M301,422h-90V300h90V422z M421,422h-90V300h90V422z"/>
	</g>
</g>
<g>
	<g>
		<path d="M147.829,95.574c-1.59-4.894-5.577-8.63-10.563-9.9l-30.997-7.896L89.181,50.737c-2.749-4.35-7.535-6.987-12.681-6.987
			s-9.932,2.637-12.681,6.987L46.761,77.73l-31.935,7.92C9.764,86.905,5.718,90.7,4.14,95.671c-1.578,4.971-0.461,10.404,2.95,14.35
			l21.081,24.378l-2.876,31.529c-0.472,5.168,1.762,10.213,5.905,13.338c4.071,3.071,9.524,3.918,14.448,2.013l30.774-11.915
			l29.796,11.862c4.783,1.904,10.203,1.222,14.366-1.801c4.162-3.024,6.484-7.971,6.151-13.106l-2.069-31.92l20.436-24.608
			C148.391,105.834,149.419,100.467,147.829,95.574z M97.772,119.828c-2.45,2.95-3.678,6.727-3.43,10.554l0.921,14.193
			l-13.215-5.261c-3.437-1.368-7.353-1.45-10.965-0.052l-13.717,5.311l1.259-13.798c0.371-4.058-0.926-8.092-3.591-11.174
			l-9.266-10.714l14.063-3.487c3.754-0.931,7.004-3.276,9.07-6.546L76.5,86.829l7.598,12.023c2.049,3.242,5.262,5.576,8.979,6.522
			l13.783,3.511L97.772,119.828z"/>
	</g>
</g>
<g>
	<g>
		<path d="M342.095,62.188c-1.719-5.292-6.226-9.196-11.708-10.145l-41.138-7.118L269.767,8c-2.597-4.921-7.703-8-13.267-8
			c-5.564,0-10.67,3.08-13.267,8l-19.482,36.925l-41.138,7.118c-5.482,0.949-9.989,4.854-11.708,10.145
			c-1.72,5.292-0.369,11.1,3.509,15.09l29.098,29.938l-5.943,41.324c-0.792,5.507,1.529,11,6.031,14.271
			c4.501,3.271,10.441,3.781,15.436,1.326l37.465-18.422l37.465,18.422c4.978,2.447,10.923,1.954,15.436-1.326
			c4.502-3.271,6.823-8.764,6.031-14.271l-5.943-41.324l29.098-29.938C342.464,73.289,343.814,67.48,342.095,62.188z
			 M282.834,91.597c-3.241,3.335-4.753,7.986-4.091,12.59l2.946,20.483l-18.57-9.131c-4.175-2.052-9.064-2.052-13.238,0
			l-18.57,9.131l2.946-20.483c0.662-4.604-0.85-9.254-4.091-12.59l-14.424-14.84l20.392-3.528c4.583-0.793,8.539-3.667,10.709-7.781
			l9.657-18.303l9.657,18.303c2.17,4.114,6.126,6.988,10.709,7.781l20.392,3.528L282.834,91.597z"/>
	</g>
</g>
<g>
	<g>
		<path d="M508.829,95.574c-1.59-4.894-5.577-8.63-10.563-9.9l-31.182-7.943l-18.083-27.27c-2.811-4.24-7.53-6.75-12.666-6.709
			c-5.086,0.056-9.798,2.686-12.516,6.986l-17.088,27.041l-30.997,7.896c-4.986,1.27-8.974,5.007-10.563,9.9
			c-1.589,4.893-0.562,10.26,2.727,14.219l20.436,24.608l-2.069,31.92c-0.333,5.135,1.989,10.082,6.151,13.106
			s9.581,3.704,14.366,1.801l29.796-11.862l30.774,11.915c4.814,1.863,10.196,1.11,14.29-1.895
			c4.128-3.029,6.426-7.955,6.095-13.064l-2.069-31.92l20.436-24.608C509.391,105.834,510.419,100.467,508.829,95.574z
			 M458.772,119.828c-2.45,2.95-3.678,6.727-3.43,10.554l0.937,14.441l-14.363-5.561c-1.743-0.675-3.579-1.012-5.416-1.012
			c-1.884,0-3.768,0.355-5.549,1.064l-13.215,5.261l0.921-14.193c0.248-3.827-0.979-7.604-3.43-10.554l-9.087-10.942l13.783-3.511
			c3.717-0.946,6.93-3.281,8.979-6.522l7.9-12.503l8.475,12.779c2.057,3.102,5.192,5.328,8.799,6.246l13.783,3.511L458.772,119.828z
			"/>
	</g>
</g>
<g>
	<g>
		<path d="M136,330c-8.284,0-15,6.716-15,15v32c0,8.284,6.716,15,15,15s15-6.716,15-15v-32C151,336.716,144.284,330,136,330z"/>
	</g>
</g>
<g>
	<g>
		<path d="M256,330c-8.284,0-15,6.716-15,15v32c0,8.284,6.716,15,15,15s15-6.716,15-15v-32C271,336.716,264.284,330,256,330z"/>
	</g>
</g>
<g>
	<g>
		<path d="M376,330c-8.284,0-15,6.716-15,15v32c0,8.284,6.716,15,15,15s15-6.716,15-15v-32C391,336.716,384.284,330,376,330z"/>
	</g>
</g>
<g>
</g>
<g>
</g>
<g>
</g>
<g>
</g>
<g>
</g>
<g>
</g>
<g>
</g>
<g>
</g>
<g>
</g>
<g>
</g>
<g>
</g>
<g>
</g>
<g>
</g>
<g>
</g>
<g>
</g>
</svg>
