<svg id="Capa_1" enable-background="new 0 0 512 512" height="512" viewBox="0 0 512 512" width="512" xmlns="http://www.w3.org/2000/svg"><g><g><path d="m497 30h-482c-8.284 0-15-6.716-15-15s6.716-15 15-15h482c8.284 0 15 6.716 15 15s-6.716 15-15 15z"/></g><g><path d="m497 512h-482c-8.284 0-15-6.716-15-15s6.716-15 15-15h482c8.284 0 15 6.716 15 15s-6.716 15-15 15z"/></g><g><path d="m377 391.5h-362c-8.284 0-15-6.716-15-15s6.716-15 15-15h362c8.284 0 15 6.716 15 15s-6.716 15-15 15z"/></g><g><path d="m497 271h-482c-8.284 0-15-6.716-15-15s6.716-15 15-15h482c8.284 0 15 6.716 15 15s-6.716 15-15 15z"/></g><g><path d="m377 150.5h-362c-8.284 0-15-6.716-15-15s6.716-15 15-15h362c8.284 0 15 6.716 15 15s-6.716 15-15 15z"/></g></g></svg>